<svg xmlns="http://www.w3.org/2000/svg" width="980" height="430" viewBox="0 0 980 430">
<rect width="100%" height="100%" fill="white"/>
<text x="490" y="35" text-anchor="middle" font-size="22" font-weight="700">Strong Aug Top-2: Accuracy and Pi Latency</text>
<rect x="80" y="80" width="820" height="240" fill="#fbfbfb" stroke="#d8d8d8"/>
<line x1="80" y1="320.0" x2="900" y2="320.0" stroke="#eeeeee"/>
<text x="72" y="324.0" text-anchor="end" font-size="12" fill="#555">0</text>
<line x1="80" y1="273.8" x2="900" y2="273.8" stroke="#eeeeee"/>
<text x="72" y="277.8" text-anchor="end" font-size="12" fill="#555">1</text>
<line x1="80" y1="227.7" x2="900" y2="227.7" stroke="#eeeeee"/>
<text x="72" y="231.7" text-anchor="end" font-size="12" fill="#555">2</text>
<line x1="80" y1="181.5" x2="900" y2="181.5" stroke="#eeeeee"/>
<text x="72" y="185.5" text-anchor="end" font-size="12" fill="#555">3</text>
<line x1="80" y1="135.4" x2="900" y2="135.4" stroke="#eeeeee"/>
<text x="72" y="139.4" text-anchor="end" font-size="12" fill="#555">4</text>
<line x1="80" y1="89.2" x2="900" y2="89.2" stroke="#eeeeee"/>
<text x="72" y="93.2" text-anchor="end" font-size="12" fill="#555">5</text>
<text x="28" y="200.0" transform="rotate(-90 28,200.0)" text-anchor="middle" font-size="13" fill="#555">4-thread invoke mean (ms)</text>
<rect x="129.2" y="94.3" width="105" height="225.7" rx="4" fill="#4b6cb7"/>
<text x="181.7" y="86.3" text-anchor="middle" font-size="12" font-weight="700">4.89 ms</text>
<text x="181.7" y="344" text-anchor="middle" font-size="12">old PTQ</text>
<text x="181.7" y="363" text-anchor="middle" font-size="12" fill="#555">acc 99.63%</text>
<rect x="283.3" y="96.6" width="105" height="223.4" rx="4" fill="#4b6cb7"/>
<text x="335.8" y="88.6" text-anchor="middle" font-size="12" font-weight="700">4.84 ms</text>
<text x="335.8" y="344" text-anchor="middle" font-size="12">old QAT</text>
<text x="335.8" y="363" text-anchor="middle" font-size="12" fill="#555">acc 99.63%</text>
<rect x="437.5" y="98.8" width="105" height="221.2" rx="4" fill="#1b7f79"/>
<text x="490.0" y="90.8" text-anchor="middle" font-size="12" font-weight="700">4.79 ms</text>
<text x="490.0" y="344" text-anchor="middle" font-size="12">strong PTQ</text>
<text x="490.0" y="363" text-anchor="middle" font-size="12" fill="#555">acc 100.00%</text>
<rect x="591.7" y="98.8" width="105" height="221.2" rx="4" fill="#1b7f79"/>
<text x="644.2" y="90.8" text-anchor="middle" font-size="12" font-weight="700">4.79 ms</text>
<text x="644.2" y="344" text-anchor="middle" font-size="12">strong PTQ bright</text>
<text x="644.2" y="363" text-anchor="middle" font-size="12" fill="#555">acc 100.00%</text>
<rect x="745.8" y="97.4" width="105" height="222.6" rx="4" fill="#4b6cb7"/>
<text x="798.3" y="89.4" text-anchor="middle" font-size="12" font-weight="700">4.82 ms</text>
<text x="798.3" y="344" text-anchor="middle" font-size="12">strong QAT</text>
<text x="798.3" y="363" text-anchor="middle" font-size="12" fill="#555">acc 99.63%</text>
<text x="80" y="400" font-size="13" fill="#555">Strong PTQ reaches 273/273 while keeping the same DenseNet int8 latency class.</text>
</svg>