<svg xmlns="http://www.w3.org/2000/svg" viewBox="0 0 860 520" width="860" height="520">
  <rect width="860" height="520" fill="#ffffff"/>
  <text x="40" y="48" font-size="26" font-weight="700" fill="#111827">New Camera Timing Pie - Dashboard Mode</text>
  <text x="40" y="78" font-size="16" fill="#4b5563">Total loop mean 33.33 ms, E2E 30.00 FPS, 300 measured frames after 20 warm-up frames</text>
  <g><path d="M 245.000 245.000 L 245.000 95.000 A 150.000 150.000 0 0 1 394.636 255.438 Z" fill="#4E79A7" stroke="#ffffff" stroke-width="2"/><path d="M 245.000 245.000 L 394.636 255.438 A 150.000 150.000 0 0 1 385.084 298.632 Z" fill="#59A14F" stroke="#ffffff" stroke-width="2"/><path d="M 245.000 245.000 L 385.084 298.632 A 150.000 150.000 0 0 1 171.636 375.835 Z" fill="#F28E2B" stroke="#ffffff" stroke-width="2"/><path d="M 245.000 245.000 L 171.636 375.835 A 150.000 150.000 0 0 1 243.691 95.006 Z" fill="#E15759" stroke="#ffffff" stroke-width="2"/><path d="M 245.000 245.000 L 243.691 95.006 A 150.000 150.000 0 0 1 245.000 95.000 Z" fill="#B07AA1" stroke="#ffffff" stroke-width="2"/><text x="314.1" y="180.5" text-anchor="middle" dominant-baseline="middle" font-size="16" font-weight="700" fill="#ffffff">26.1%</text><text x="277.1" y="333.9" text-anchor="middle" dominant-baseline="middle" font-size="16" font-weight="700" fill="#ffffff">27.3%</text><text x="153.5" y="221.5" text-anchor="middle" dominant-baseline="middle" font-size="16" font-weight="700" fill="#ffffff">41.7%</text></g>
  <circle cx="245" cy="245" r="62" fill="#ffffff"/>
  <text x="245" y="237" text-anchor="middle" font-size="23" font-weight="700" fill="#111827">30.0 FPS</text>
  <text x="245" y="265" text-anchor="middle" font-size="16" fill="#4b5563">33.33 ms</text>
  <text x="500" y="105" font-size="20" font-weight="700" fill="#111827">Breakdown</text>
  <rect x="500" y="138" width="18" height="18" fill="#4E79A7" rx="3"/><text x="530" y="152" font-size="18" fill="#1f2937">Camera read/wait: 8.70 ms (26.1%)</text><rect x="500" y="172" width="18" height="18" fill="#59A14F" rx="3"/><text x="530" y="186" font-size="18" fill="#1f2937">Preprocess: 1.57 ms (4.7%)</text><rect x="500" y="206" width="18" height="18" fill="#F28E2B" rx="3"/><text x="530" y="220" font-size="18" fill="#1f2937">TFLite predict: 9.10 ms (27.3%)</text><rect x="500" y="240" width="18" height="18" fill="#E15759" rx="3"/><text x="530" y="254" font-size="18" fill="#1f2937">Dashboard draw: 13.91 ms (41.7%)</text><rect x="500" y="274" width="18" height="18" fill="#B07AA1" rx="3"/><text x="530" y="288" font-size="18" fill="#1f2937">Other overhead: 0.05 ms (0.1%)</text>
  <text x="500" y="445" font-size="14" fill="#6b7280">Note: camera read includes waiting for the next 30 FPS frame.</text>
</svg>
